<?xml version="1.0" encoding="UTF-8"?>
<svg width="49px" height="37px" viewBox="0 0 49 37" version="1.1" xmlns="http://www.w3.org/2000/svg" xmlns:xlink="http://www.w3.org/1999/xlink">
    <!-- Generator: Sketch 41.2 (35397) - http://www.bohemiancoding.com/sketch -->
    <title>Group</title>
    <desc>Created with Sketch.</desc>
    <defs></defs>
    <g id="Page-1" stroke="none" stroke-width="1" fill="none" fill-rule="evenodd">
        <g id="about_us_icons" transform="translate(0.000000, -1.000000)" fill="#010101">
            <g id="Group" transform="translate(0.000000, 1.000000)">
                <rect id="Rectangle-path" x="11.7" y="12.8" width="25.6" height="0.6"></rect>
                <rect id="Rectangle-path" x="15.3" y="14.9" width="18.2" height="0.6"></rect>
                <rect id="Rectangle-path" x="16.8" y="10.7" width="14.9" height="0.6"></rect>
                <rect id="Rectangle-path" x="9.3" y="26.5" width="8.1" height="0.6"></rect>
                <rect id="Rectangle-path" x="10.8" y="28.3" width="5.1" height="0.6"></rect>
                <path d="M0.5,0.6 L0.5,37 L48.8,37 L48.8,0.6 L0.5,0.6 Z M48.2,1.2 L48.2,5.2 L1.1,5.2 L1.1,1.2 L48.2,1.2 Z M1.1,36.4 L1.1,5.8 L48.2,5.8 L48.2,36.4 L1.1,36.4 Z" id="Shape"></path>
                <circle id="Oval" cx="3.3" cy="3.2" r="0.7"></circle>
                <circle id="Oval" cx="6" cy="3.2" r="0.7"></circle>
                <circle id="Oval" cx="8.7" cy="3.2" r="0.7"></circle>
                <path d="M13.5,24.7 C14.8,24.7 15.9,23.6 15.9,22.3 C15.9,21 14.8,19.9 13.5,19.9 C12.2,19.9 11.1,21 11.1,22.3 C11.1,23.6 12.1,24.7 13.5,24.7 Z M13.5,20.5 C14.5,20.5 15.3,21.3 15.3,22.3 C15.3,23.3 14.5,24.1 13.5,24.1 C12.5,24.1 11.7,23.3 11.7,22.3 C11.7,21.3 12.5,20.5 13.5,20.5 Z" id="Shape"></path>
                <rect id="Rectangle-path" x="20.4" y="26.5" width="8.1" height="0.6"></rect>
                <rect id="Rectangle-path" x="21.8" y="28.3" width="5.1" height="0.6"></rect>
                <path d="M22.1,22.3 C22.1,23.6 23.2,24.7 24.5,24.7 C25.8,24.7 26.9,23.6 26.9,22.3 C26.9,21 25.8,19.9 24.5,19.9 C23.2,19.9 22.1,21 22.1,22.3 Z M26.3,22.3 C26.3,23.3 25.5,24.1 24.5,24.1 C23.5,24.1 22.7,23.3 22.7,22.3 C22.7,21.3 23.5,20.5 24.5,20.5 C25.5,20.5 26.3,21.3 26.3,22.3 Z" id="Shape"></path>
                <rect id="Rectangle-path" x="31.4" y="26.5" width="8.1" height="0.6"></rect>
                <rect id="Rectangle-path" x="32.9" y="28.3" width="5.1" height="0.6"></rect>
                <path d="M35.5,24.7 C36.8,24.7 37.9,23.6 37.9,22.3 C37.9,21 36.8,19.9 35.5,19.9 C34.2,19.9 33.1,21 33.1,22.3 C33.1,23.6 34.2,24.7 35.5,24.7 Z M35.5,20.5 C36.5,20.5 37.3,21.3 37.3,22.3 C37.3,23.3 36.5,24.1 35.5,24.1 C34.5,24.1 33.7,23.3 33.7,22.3 C33.7,21.3 34.5,20.5 35.5,20.5 Z" id="Shape"></path>
            </g>
        </g>
    </g>
</svg>