<?xml version="1.0" encoding="UTF-8" standalone="no"?>
<svg  viewBox="0 0 24 16" version="1.1" xmlns="http://www.w3.org/2000/svg" xmlns:xlink="http://www.w3.org/1999/xlink">
    <!-- Generator: Sketch 39.1 (31720) - http://www.bohemiancoding.com/sketch -->
    <title>icon</title>
    <desc>Created with Sketch.</desc>
    <defs></defs>
    <g id="Editor" stroke="none" stroke-width="1">
        <g id="Move-Row" transform="translate(-35.000000, -34.000000)">
            <g id="Weblium-won-white-icon" transform="translate(35.000000, 34.000000)">
                <g id="weblium_icon">
                    <path d="M22.137931,1.08900524 L5.77655172,12.9926702 L3.26068966,4.85863874 L6.25655172,6.95287958 C6.68689655,7.2460733 7.25793103,7.21256545 7.64689655,6.86910995 L12.3641379,2.68900524 L14.7724138,4.75811518 L16.6675862,3.38429319 L13.0924138,0.301570681 C12.662069,-0.0670157068 12.0331034,-0.0670157068 11.6110345,0.309947644 L6.81931034,4.55706806 L1.8537931,1.08900524 C1.44827586,0.804188482 0.926896552,0.820942408 0.537931034,1.10575916 C0.148965517,1.39895288 -0.0165517241,1.90994764 0.132413793,2.37068063 L4.08827586,15.1790576 C4.19586207,15.5308901 4.46896552,15.8073298 4.80827586,15.9246073 C4.92413793,15.9664921 5.04827586,15.9832461 5.17241379,15.9832461 C5.40413793,15.9832461 5.63586207,15.9078534 5.83448276,15.765445 L20.9296552,4.78324607 L18.8689655,12.9507853 L15.5172414,10.5968586 L13.5724138,12.0209424 L18.9268966,15.773822 C19.2248276,15.991623 19.6137931,16.0335079 19.9613793,15.9078534 C20.3089655,15.773822 20.5655172,15.4806283 20.6648276,15.1204188 L23.9006897,2.30366492 C24,1.8513089 23.8096552,1.35706806 23.4206897,1.08900524 C23.0317241,0.829319372 22.5268966,0.829319372 22.137931,1.08900524 Z" id="icon"></path>
                </g>
            </g>
        </g>
    </g>
</svg>